<svg enable-background="new 0 0 2000 2000" viewBox="0 0 2000 2000" xmlns="http://www.w3.org/2000/svg"><circle cx="1000" cy="1000" fill="#2c1c37" r="961"/><circle cx="1000" cy="1000" fill="#928fb8" r="909"/><path d="m1159 468 90.83-90.83c28.45-28.45 66.14-46.11 106.29-48.75 14.77-.97 29.95.03 43.88 4.58 52 17 150 81 179 170s-23 158-52 185-75 71-75 71z" fill="#24142c" stroke="#161616" stroke-miterlimit="10" stroke-width="12"/><path d="m706 665 171.13-172.01c17.77-17.86 40.22-30.35 64.79-35.9 45.5-10.28 124.61-19.94 215.08 4.91 142 39 263 152 323 287 34.06 76.63 28.48 155.2 17.3 208.81a199.09 199.09 0 0 1 -55.99 101.95l-156.31 152.24z" fill="#392946" stroke="#161616" stroke-miterlimit="10" stroke-width="12"/><path d="m1136.68 1253.95c-77.05 0-146.58-25.18-172.76-34.66-71.08-25.75-138.54-71.19-189.94-127.97-55.98-61.83-91.54-134.64-102.84-210.54-5.77-38.76-19.28-129.52 33.96-207.53 65.52-96 187.34-110.34 254.12-110.34 34 0 68.36 3.59 99.36 10.38 78.01 17.09 152.88 59.52 210.82 119.47 28.8 29.81 52.88 63.16 71.57 99.13 19.3 37.16 32.39 76.25 38.89 116.19 6.75 41.47 8.13 81.43 4.11 118.77-7.83 72.69-35.1 129.95-81.05 170.18-43.16 37.77-99.08 56.92-166.24 56.92z" fill="#5b537d"/><path d="m959.21 574.9c35.45 0 68.94 4 96.79 10.1 155.71 34.11 286.31 167.13 312 325 4.57 28.09 30.49 187.4-73 278-46.87 41.03-104.27 53.95-158.32 53.95-74.95 0-143.48-24.82-168.68-33.95-136.84-49.56-261.83-173.42-285-329-5.72-38.42-18.59-124.87 32-199 54.61-80.02 155.48-105.1 244.21-105.1m.01-24v24-24c-52.04 0-101.61 8.33-143.38 24.09-52.04 19.63-92.63 50.41-120.66 91.48-55.89 81.9-41.89 175.92-35.91 216.06 11.65 78.26 48.24 153.24 105.82 216.83 26.6 29.39 57.07 55.67 90.55 78.13 32.96 22.11 68.02 39.97 104.2 53.07 26.72 9.68 97.69 35.38 176.85 35.38 70.15 0 128.74-20.15 174.13-59.89 26.51-23.21 47.36-52.25 61.96-86.31 11.74-27.4 19.52-58.22 23.12-91.62 4.14-38.41 2.72-79.45-4.2-121.98-6.7-41.2-20.19-81.51-40.08-119.8-19.22-37-43.98-71.3-73.59-101.94-29.43-30.46-62.83-56.46-99.28-77.28-37.33-21.33-76.89-36.66-117.6-45.58-31.84-6.96-67.08-10.64-101.93-10.64z" fill="#161616"/><path d="m918 1402 70-85s-67-43-128-49v-64h-128v58.43s-52 6.57-78 35.57l-50-38-74 52 31 38s-37 32-41 74h-60v78.94h58s24 42.06 43 56.06-1.15 0-1.15 0l-33.85 47 63 57 56-51s39 23 80 25v90h133v-82s99-26.06 130-68.53l-80.23-80.23s-44.77 30.77-123.77 28.77-117.63-43.72-125-56c-12-20-3.85-39.43-1-44 5-8 47-59 121-55s139 31.99 139 31.99z" fill="#1b1a1d"/><path d="m1084.32 1061.87-4.9 105.35s-75.84-18.17-123.42-56.75l-41.44 42.54-91.69-89.32 37.83-38.84s-32.99-40.66-32.84-78.07l-60.42-9.63-19.34-86.2 46.81-3.63s-5.78-47.09 18.55-77.8l-42.98-41.87 51.11-52.47 41.55 40.47s44.43-11.21 67.1-7.26-.82-.8-.82-.8l6.19-54.86 82.04 6.07 7.09 72.98s42.83 11.93 73.49 39.21l58.28-59.82 95.27 92.81-53.1 54.51s54.04 86.41 48.74 136.27l-109.43-2.65s-12.14-51.69-70.03-105.48c-57.88-53.8-112.57-53.02-125.8-50-21.55 4.92-28.29 23.52-29.21 28.55-1.6 8.81-4.54 72.01 51.06 120.99 55.62 48.96 120.31 75.7 120.31 75.7z" fill="#9b9bc6"/></svg>