<svg enable-background="new 0 0 1000 1000" height="1000" viewBox="0 0 1000 1000" width="1000" xmlns="http://www.w3.org/2000/svg"><path d="m453.7415466 465.5946655c17.072815 9.8569947 32.5301514 21.4311524 46.2584229 34.4053345 4.3718262-18.3760986 6.666687-37.5496216 6.666687-57.2636719 0-136.1327515-110.3573608-246.4901123-246.4901123-246.4901123-8.0269165 0-15.9623413.3898315-23.7926636 1.1398926-84.3870849 73.5738525-137.7172241 181.8642578-137.7172241 302.6138916 0 26.3786011 2.5502319 52.1608276 7.407959 77.1185303 3.2802734-7.1989136 6.918396-14.3103638 10.9551392-21.3022461 68.0664062-117.8944092 218.8173217-158.2880249 336.7117919-90.2216187z" fill="#fecd38"/><path d="m506.6666565 442.7363281c0 19.7140503-2.2948608 38.8875732-6.666687 57.2636719 18.1001282-5.4019165 35.8522034-13.0013428 52.9250793-22.8583984 117.8944092-68.0663452 158.2880859-218.8173218 90.2216797-336.7116699-4.0465088-7.0088501-8.3978271-13.7305298-13.0046387-20.1850586-40.8121338-13.9830322-84.5894775-21.578186-130.1421204-21.578186-100.9006348 0-193.100708 37.2397461-263.6160889 98.7194214 7.8303223-.750061 15.7657471-1.1398926 23.7926636-1.1398926 136.1327516-.0000001 246.4901124 110.3573608 246.4901124 246.4901122z" fill="#fc992d"/><path d="m552.9250488 477.1416016c-17.0728759 9.8570556-34.8249511 17.4564819-52.9250793 22.8583984 13.728302 12.9741821 29.1855774 24.5482788 46.2584534 34.4052734 117.8944092 68.0664062 268.6453857 27.6727905 336.711792-90.2215576 4.0367432-6.9918823 7.6748047-14.1035156 10.9550781-21.3024292-27.5712891-141.6540527-129.6450196-256.6779175-263.7832032-302.6364136 4.6068115 6.4545288 8.9581299 13.1762085 13.0046387 20.1850586 68.0664063 117.8943482 27.6727295 268.6453247-90.2216797 336.71167z" fill="#fa473e"/><path d="m447.0748596 522.8583374c17.072815-9.8570557 34.8250122-17.4564209 52.9251099-22.8583374-13.7282715-12.9741821-29.1856079-24.5483398-46.2584229-34.4053345-117.8944702-68.0664062-268.6453857-27.6727905-336.711792 90.2216187-4.0367432 6.9918823-7.6748657 14.1033325-10.9551392 21.3022461 27.5712281 141.6541137 129.6449586 256.6781616 263.7830811 302.6365967-4.6067505-6.4544678-8.9579468-13.1762085-13.0045166-20.1850586-68.0663452-117.8944092-27.6727905-268.6453858 90.2216797-336.711731z" fill="#41b833"/><path d="m901.333374 500c0-26.3786621-2.550293-52.1610107-7.4080811-77.1187134-3.2802734 7.1989136-6.918335 14.3105469-10.9550781 21.3024292-68.0664062 117.8943481-218.8173828 158.2879639-336.711792 90.2215576-17.0728759-9.8569946-32.5301513-21.4310913-46.2584533-34.4052734-4.3718262 18.3760986-6.666626 37.5496216-6.666626 57.2636719 0 136.1327515 110.3573303 246.4901123 246.4900208 246.4901123 8.0268555 0 15.9624023-.3898926 23.7927246-1.1398926 84.3870849-73.5738525 137.7172851-181.8642578 137.7172851-302.6138916z" fill="#b054c7"/><path d="m493.3333435 557.2636719c0-19.7140503 2.2947998-38.8875732 6.666626-57.2636719-18.1000977 5.4019165-35.8522949 13.0012817-52.9251099 22.8583374-117.8944702 68.0663452-158.2880249 218.8173218-90.2216797 336.711731 4.0465698 7.0088501 8.3977661 13.7305908 13.0045166 20.1850586 40.8121338 13.9830933 84.5895996 21.578186 130.1422729 21.578186 100.9006653 0 193.1006165-37.2397461 263.6161194-98.7194214-7.8303223.75-15.7658691 1.1398926-23.7927246 1.1398926-136.1326904 0-246.4900207-110.3573609-246.4900207-246.4901123z" fill="#1b8fed"/></svg>